<svg width="682" height="682" viewBox="0 0 682 682" fill="none" xmlns="http://www.w3.org/2000/svg">
<path d="M308.667 0.756208C242.4 7.15621 176.667 34.2229 125.2 76.0895C110 88.3562 86 112.623 74 127.69C43.4667 165.956 18.4 217.69 8 264.09C1.46667 293.156 0 307.423 0 340.756C0 374.09 1.46667 388.356 8 417.423C18.5333 464.756 44.2667 517.29 75.8667 556.09C88.1333 571.29 112.4 595.29 127.467 607.29C165.733 637.823 217.467 662.89 263.867 673.29C292.933 679.823 307.2 681.29 340.533 681.29C373.867 681.29 388.133 679.823 417.2 673.29C452 665.556 497.6 646.09 527.6 626.223C579.467 591.69 619.333 546.356 646.667 490.756C663.333 456.756 672.8 426.223 678.8 387.423C682 365.956 682 315.556 678.8 294.09C672.8 255.29 663.333 224.756 646.667 190.756C628.8 154.49 608.933 126.756 580.267 98.4895C552.133 70.6229 526.4 52.3562 490.533 34.7562C456.933 18.2228 425.733 8.48955 388.533 2.75621C371.733 0.222875 326.133 -0.843792 308.667 0.756208ZM387.867 45.9562C419.867 51.2895 443.733 59.0229 473.2 73.4229C549.2 110.756 608 182.49 629.2 264.223C636.4 291.823 638.4 308.356 638.4 340.756C638.4 373.156 636.4 389.69 629.2 417.29C608 499.023 549.2 570.756 473.2 608.09C443.733 622.49 420.267 630.09 387.2 635.69C363.2 639.823 317.867 639.823 293.867 635.69C260.8 630.09 237.333 622.49 207.867 608.09C131.867 570.756 73.0667 499.023 51.8667 417.29C44.6667 389.69 42.6667 373.156 42.6667 340.756C42.6667 308.356 44.6667 291.823 51.8667 264.223C59.2 235.956 74.5333 201.556 90.5333 177.423C141.467 100.89 220.133 53.1562 311.867 43.4229C329.067 41.5562 369.733 42.8895 387.867 45.9562Z" fill="#F9A826"/>
</svg>
